<?xml version="1.0" encoding="UTF-8" standalone="no"?>
<svg
   xmlns:dc="http://purl.org/dc/elements/1.1/"
   xmlns:cc="http://creativecommons.org/ns#"
   xmlns:rdf="http://www.w3.org/1999/02/22-rdf-syntax-ns#"
   xmlns:svg="http://www.w3.org/2000/svg"
   xmlns="http://www.w3.org/2000/svg"
   width="200mm"
   height="50mm"
   viewBox="0 0 200 50"
   version="1.1"
   id="svg212">
  <defs
     id="defs206" />
  <metadata
     id="metadata209">
    <rdf:RDF>
      <cc:Work
         rdf:about="">
        <dc:format>image/svg+xml</dc:format>
        <dc:type
           rdf:resource="http://purl.org/dc/dcmitype/StillImage" />
        <dc:title></dc:title>
      </cc:Work>
    </rdf:RDF>
  </metadata>
  <g
     id="layer1">
    <g
       transform="matrix(1.4981516,0,0,1.4981516,-888.88982,-150.79719)"
       id="g938">
      <path
         id="path881"
         style="font-style:normal;font-variant:normal;font-weight:normal;font-stretch:normal;font-size:21.0611px;line-height:1.25;font-family:Coolvetica;-inkscape-font-specification:'Coolvetica, Normal';font-variant-ligatures:normal;font-variant-caps:normal;font-variant-numeric:normal;font-variant-east-asian:normal;letter-spacing:0px;word-spacing:0px;fill:#eae2b7;fill-opacity:1;stroke:none;stroke-width:0.527;stroke-miterlimit:4;stroke-dasharray:none;stroke-opacity:1"
         d="m 595.26816,121.96564 v -14.15306 h 2.73794 v 14.15306 z" />
      <path
         id="path883"
         style="font-style:normal;font-variant:normal;font-weight:normal;font-stretch:normal;font-size:21.0611px;line-height:1.25;font-family:Coolvetica;-inkscape-font-specification:'Coolvetica, Normal';font-variant-ligatures:normal;font-variant-caps:normal;font-variant-numeric:normal;font-variant-east-asian:normal;letter-spacing:0px;word-spacing:0px;fill:#eae2b7;fill-opacity:1;stroke:none;stroke-width:0.527;stroke-miterlimit:4;stroke-dasharray:none;stroke-opacity:1"
         d="m 599.76833,121.96564 v -10.36206 h 2.73794 v 10.36206 z m 0,-11.60467 v -2.54839 h 2.73794 v 2.54839 z" />
      <path
         id="path885"
         style="font-style:normal;font-variant:normal;font-weight:normal;font-stretch:normal;font-size:21.0611px;line-height:1.25;font-family:Coolvetica;-inkscape-font-specification:'Coolvetica, Normal';font-variant-ligatures:normal;font-variant-caps:normal;font-variant-numeric:normal;font-variant-east-asian:normal;letter-spacing:0px;word-spacing:0px;fill:#eae2b7;fill-opacity:1;stroke:none;stroke-width:0.527;stroke-miterlimit:4;stroke-dasharray:none;stroke-opacity:1"
         d="m 609.17278,120.00695 q 1.03199,0 1.68489,-0.8635 0.65289,-0.88457 0.65289,-2.2746 0,-3.20129 -2.35884,-3.20129 -2.29566,0 -2.29566,3.36978 0,1.32685 0.65289,2.14823 0.67396,0.82138 1.66383,0.82138 z m -4.90724,1.95869 v -14.15306 h 2.69582 v 5.13891 q 1.15837,-1.62171 3.07493,-1.62171 1.01093,0 1.79019,0.40016 0.80032,0.3791 1.34791,1.09518 0.54759,0.71608 0.82138,1.70595 0.29486,0.96881 0.29486,2.14823 0,1.30579 -0.33698,2.33778 -0.33698,1.032 -0.92669,1.74807 -0.58971,0.71608 -1.43215,1.09518 -0.82139,0.3791 -1.7902,0.3791 -1.93762,0 -2.88537,-1.53746 l -0.0211,1.26367 z" />
      <path
         id="path887"
         style="font-style:normal;font-variant:normal;font-weight:normal;font-stretch:normal;font-size:21.0611px;line-height:1.25;font-family:Coolvetica;-inkscape-font-specification:'Coolvetica, Normal';font-variant-ligatures:normal;font-variant-caps:normal;font-variant-numeric:normal;font-variant-east-asian:normal;letter-spacing:0px;word-spacing:0px;fill:#eae2b7;fill-opacity:1;stroke:none;stroke-width:0.527;stroke-miterlimit:4;stroke-dasharray:none;stroke-opacity:1"
         d="m 622.55844,121.96564 v -1.45322 q -1.05306,1.72701 -3.22235,1.72701 -0.77926,0 -1.43216,-0.27379 -0.63183,-0.2738 -1.09517,-0.77926 -0.46335,-0.50547 -0.73714,-1.20049 -0.25274,-0.69501 -0.25274,-1.55852 v -6.82379 h 2.73795 v 6.40257 q 0,1.93762 1.74807,1.93762 1.05305,0 1.57958,-0.65289 0.54759,-0.67396 0.54759,-1.70595 v -5.98135 h 2.71688 v 10.36206 z" />
      <path
         id="path889"
         style="font-style:normal;font-variant:normal;font-weight:normal;font-stretch:normal;font-size:21.0611px;line-height:1.25;font-family:Coolvetica;-inkscape-font-specification:'Coolvetica, Normal';font-variant-ligatures:normal;font-variant-caps:normal;font-variant-numeric:normal;font-variant-east-asian:normal;letter-spacing:0px;word-spacing:0px;fill:#eae2b7;fill-opacity:1;stroke:none;stroke-width:0.527;stroke-miterlimit:4;stroke-dasharray:none;stroke-opacity:1"
         d="m 626.8786,121.96564 v -10.36206 h 2.56946 v 1.2426 q 0.33698,-0.52653 0.69501,-0.82138 0.3791,-0.29486 0.7582,-0.44229 0.40016,-0.16848 0.80033,-0.21061 0.40016,-0.0421 0.82138,-0.0421 h 0.35804 v 2.80113 q -0.3791,-0.0632 -0.7582,-0.0632 -2.50627,0 -2.50627,2.50628 v 5.39164 z" />
      <path
         id="path891"
         style="font-style:normal;font-variant:normal;font-weight:normal;font-stretch:normal;font-size:21.0611px;line-height:1.25;font-family:Coolvetica;-inkscape-font-specification:'Coolvetica, Normal';font-variant-ligatures:normal;font-variant-caps:normal;font-variant-numeric:normal;font-variant-east-asian:normal;letter-spacing:0px;word-spacing:0px;fill:#eae2b7;fill-opacity:1;stroke:none;stroke-width:0.527;stroke-miterlimit:4;stroke-dasharray:none;stroke-opacity:1"
         d="m 639.95756,116.88991 q -0.21061,0.21061 -0.61078,0.33698 -0.40016,0.12637 -1.15836,0.27379 -1.17942,0.23168 -1.6217,0.58971 -0.44228,0.35804 -0.44228,1.032 0,1.15836 1.32685,1.15836 0.52652,0 0.96881,-0.16849 0.46334,-0.18955 0.77926,-0.4844 0.33697,-0.31592 0.52652,-0.71608 0.21062,-0.42122 0.21062,-0.88457 z m 0.18955,5.07573 q -0.12637,-0.40016 -0.16849,-0.92669 -0.48441,0.54759 -1.28473,0.88457 -0.80032,0.31591 -1.85338,0.31591 -1.79019,0 -2.63263,-0.77926 -0.82139,-0.80032 -0.82139,-2.06399 0,-1.11624 0.35804,-1.76913 0.35804,-0.67395 0.98987,-1.05305 0.63184,-0.3791 1.49534,-0.54759 0.88457,-0.18955 1.91656,-0.33698 1.032,-0.14743 1.39003,-0.3791 0.35804,-0.25273 0.35804,-0.80032 0,-0.50547 -0.4844,-0.77926 -0.46335,-0.29486 -1.26367,-0.29486 -0.94775,0 -1.36897,0.42122 -0.40016,0.42123 -0.50547,1.11624 h -2.54839 q 0.0211,-0.80032 0.25273,-1.47427 0.25274,-0.67396 0.77926,-1.15837 0.54759,-0.4844 1.4111,-0.73713 0.8635,-0.2738 2.10611,-0.2738 1.22154,0 2.06399,0.2738 0.8635,0.27379 1.36897,0.80032 0.52653,0.50546 0.7582,1.28472 0.23167,0.7582 0.23167,1.72702 v 6.55 z" />
      <path
         id="path893"
         style="font-style:normal;font-variant:normal;font-weight:normal;font-stretch:normal;font-size:21.0611px;line-height:1.25;font-family:Coolvetica;-inkscape-font-specification:'Coolvetica, Normal';font-variant-ligatures:normal;font-variant-caps:normal;font-variant-numeric:normal;font-variant-east-asian:normal;letter-spacing:0px;word-spacing:0px;fill:#eae2b7;fill-opacity:1;stroke:none;stroke-width:0.527;stroke-miterlimit:4;stroke-dasharray:none;stroke-opacity:1"
         d="m 651.06631,121.96564 v -6.27621 q 0,-1.20048 -0.40016,-1.62171 -0.40016,-0.42122 -1.36897,-0.42122 -2.12717,0 -2.12717,2.37991 v 5.93923 h -2.73795 v -10.36206 h 2.61158 v 1.5164 q 0.48441,-0.88457 1.28473,-1.32685 0.80032,-0.46335 2.06399,-0.46335 0.73713,0 1.36897,0.23167 0.63183,0.21061 1.07411,0.6529 0.46335,0.44228 0.71608,1.09518 0.2738,0.63183 0.2738,1.47427 v 7.18184 z" />
      <path
         id="path895"
         style="font-style:normal;font-variant:normal;font-weight:normal;font-stretch:normal;font-size:21.0611px;line-height:1.25;font-family:Coolvetica;-inkscape-font-specification:'Coolvetica, Normal';font-variant-ligatures:normal;font-variant-caps:normal;font-variant-numeric:normal;font-variant-east-asian:normal;letter-spacing:0px;word-spacing:0px;fill:#eae2b7;fill-opacity:1;stroke:none;stroke-width:0.527;stroke-miterlimit:4;stroke-dasharray:none;stroke-opacity:1"
         d="m 661.87132,116.88991 q -0.21061,0.21061 -0.61077,0.33698 -0.40016,0.12637 -1.15836,0.27379 -1.17942,0.23168 -1.6217,0.58971 -0.44229,0.35804 -0.44229,1.032 0,1.15836 1.32685,1.15836 0.52653,0 0.96881,-0.16849 0.46335,-0.18955 0.77926,-0.4844 0.33698,-0.31592 0.52653,-0.71608 0.21061,-0.42122 0.21061,-0.88457 z m 0.18955,5.07573 q -0.12636,-0.40016 -0.16849,-0.92669 -0.4844,0.54759 -1.28472,0.88457 -0.80032,0.31591 -1.85338,0.31591 -1.79019,0 -2.63264,-0.77926 -0.82138,-0.80032 -0.82138,-2.06399 0,-1.11624 0.35804,-1.76913 0.35804,-0.67395 0.98987,-1.05305 0.63183,-0.3791 1.49534,-0.54759 0.88456,-0.18955 1.91656,-0.33698 1.03199,-0.14743 1.39003,-0.3791 0.35804,-0.25273 0.35804,-0.80032 0,-0.50547 -0.48441,-0.77926 -0.46334,-0.29486 -1.26366,-0.29486 -0.94775,0 -1.36897,0.42122 -0.40016,0.42123 -0.50547,1.11624 h -2.54839 q 0.0211,-0.80032 0.25273,-1.47427 0.25273,-0.67396 0.77926,-1.15837 0.54759,-0.4844 1.4111,-0.73713 0.8635,-0.2738 2.10611,-0.2738 1.22154,0 2.06398,0.2738 0.86351,0.27379 1.36897,0.80032 0.52653,0.50546 0.7582,1.28472 0.23168,0.7582 0.23168,1.72702 v 6.55 z" />
      <path
         id="path897"
         style="font-style:normal;font-variant:normal;font-weight:normal;font-stretch:normal;font-size:21.0611px;line-height:1.25;font-family:Coolvetica;-inkscape-font-specification:'Coolvetica, Normal';font-variant-ligatures:normal;font-variant-caps:normal;font-variant-numeric:normal;font-variant-east-asian:normal;letter-spacing:0px;word-spacing:0px;fill:#eae2b7;fill-opacity:1;stroke:none;stroke-width:0.527;stroke-miterlimit:4;stroke-dasharray:none;stroke-opacity:1"
         d="m 667.62796,111.60358 h 2.75901 v 11.05707 q 0,0.94775 -0.31592,1.70595 -0.31592,0.77926 -0.8635,1.32685 -0.54759,0.56865 -1.30579,0.86351 -0.73714,0.31591 -1.60065,0.31591 -2.12717,0 -3.1381,-1.17942 -1.03199,-1.15836 -1.03199,-3.15916 h 2.56945 q 0,0.88456 0.33698,1.39003 0.31591,0.52653 1.11624,0.52653 0.82138,0 1.1373,-0.50547 0.33697,-0.50547 0.33697,-1.39003 z m 0,-1.24261 v -2.54839 h 2.75901 v 2.54839 z" />
      <path
         id="path899"
         style="font-style:normal;font-variant:normal;font-weight:normal;font-stretch:normal;font-size:21.0611px;line-height:1.25;font-family:Coolvetica;-inkscape-font-specification:'Coolvetica, Normal';font-variant-ligatures:normal;font-variant-caps:normal;font-variant-numeric:normal;font-variant-east-asian:normal;letter-spacing:0px;word-spacing:0px;fill:#eae2b7;fill-opacity:1;stroke:none;stroke-width:0.527;stroke-miterlimit:4;stroke-dasharray:none;stroke-opacity:1"
         d="m 678.5679,116.88991 q -0.21061,0.21061 -0.61077,0.33698 -0.40017,0.12637 -1.15837,0.27379 -1.17942,0.23168 -1.6217,0.58971 -0.44228,0.35804 -0.44228,1.032 0,1.15836 1.32685,1.15836 0.52652,0 0.96881,-0.16849 0.46334,-0.18955 0.77926,-0.4844 0.33697,-0.31592 0.52652,-0.71608 0.21062,-0.42122 0.21062,-0.88457 z m 0.18955,5.07573 q -0.12637,-0.40016 -0.16849,-0.92669 -0.48441,0.54759 -1.28473,0.88457 -0.80032,0.31591 -1.85338,0.31591 -1.79019,0 -2.63263,-0.77926 -0.82139,-0.80032 -0.82139,-2.06399 0,-1.11624 0.35804,-1.76913 0.35804,-0.67395 0.98987,-1.05305 0.63184,-0.3791 1.49534,-0.54759 0.88457,-0.18955 1.91656,-0.33698 1.032,-0.14743 1.39003,-0.3791 0.35804,-0.25273 0.35804,-0.80032 0,-0.50547 -0.4844,-0.77926 -0.46335,-0.29486 -1.26367,-0.29486 -0.94775,0 -1.36897,0.42122 -0.40016,0.42123 -0.50547,1.11624 h -2.54839 q 0.0211,-0.80032 0.25273,-1.47427 0.25274,-0.67396 0.77927,-1.15837 0.54758,-0.4844 1.41109,-0.73713 0.8635,-0.2738 2.10611,-0.2738 1.22154,0 2.06399,0.2738 0.8635,0.27379 1.36897,0.80032 0.52653,0.50546 0.7582,1.28472 0.23167,0.7582 0.23167,1.72702 v 6.55 z" />
      <path
         id="path901"
         style="font-style:normal;font-variant:normal;font-weight:normal;font-stretch:normal;font-size:21.0611px;line-height:1.25;font-family:Coolvetica;-inkscape-font-specification:'Coolvetica, Normal';font-variant-ligatures:normal;font-variant-caps:normal;font-variant-numeric:normal;font-variant-east-asian:normal;letter-spacing:0px;word-spacing:0px;fill:#eae2b7;fill-opacity:1;stroke:none;stroke-width:0.527;stroke-miterlimit:4;stroke-dasharray:none;stroke-opacity:1"
         d="m 682.97922,121.96564 v -2.84325 h 2.92749 v 2.84325 z" />
      <path
         id="path903"
         style="font-style:normal;font-variant:normal;font-weight:normal;font-stretch:normal;font-size:21.0611px;line-height:1.25;font-family:Coolvetica;-inkscape-font-specification:'Coolvetica, Normal';font-variant-ligatures:normal;font-variant-caps:normal;font-variant-numeric:normal;font-variant-east-asian:normal;letter-spacing:0px;word-spacing:0px;fill:#eae2b7;fill-opacity:1;stroke:none;stroke-width:0.527;stroke-miterlimit:4;stroke-dasharray:none;stroke-opacity:1"
         d="m 696.85059,118.21676 q -0.1053,0.90563 -0.52652,1.64277 -0.40016,0.73714 -1.032,1.26366 -0.63183,0.52653 -1.45321,0.82139 -0.80032,0.29485 -1.74807,0.29485 -1.05306,0 -1.93763,-0.33698 -0.8635,-0.35803 -1.49533,-1.05305 -0.63184,-0.71608 -0.98988,-1.74807 -0.33697,-1.05306 -0.33697,-2.44309 0,-1.39003 0.33697,-2.40097 0.35804,-1.01093 0.98988,-1.64276 0.63183,-0.6529 1.5164,-0.96881 0.90562,-0.31592 2.0008,-0.31592 1.01093,0 1.83232,0.2738 0.84244,0.27379 1.45321,0.80032 0.63183,0.52653 0.98987,1.26366 0.35804,0.73714 0.42123,1.64277 h -2.75901 q -0.1053,-0.80032 -0.65289,-1.24261 -0.52653,-0.46334 -1.30579,-0.46334 -0.44228,0 -0.82138,0.14743 -0.3791,0.14743 -0.67396,0.50546 -0.27379,0.33698 -0.44228,0.92669 -0.16849,0.56865 -0.16849,1.4111 0,1.70595 0.61077,2.52733 0.61077,0.82138 1.41109,0.82138 0.80033,0 1.36898,-0.44228 0.56865,-0.44228 0.65289,-1.28473 z" />
      <path
         id="path905"
         style="font-style:normal;font-variant:normal;font-weight:normal;font-stretch:normal;font-size:21.0611px;line-height:1.25;font-family:Coolvetica;-inkscape-font-specification:'Coolvetica, Normal';font-variant-ligatures:normal;font-variant-caps:normal;font-variant-numeric:normal;font-variant-east-asian:normal;letter-spacing:0px;word-spacing:0px;fill:#eae2b7;fill-opacity:1;stroke:none;stroke-width:0.527;stroke-miterlimit:4;stroke-dasharray:none;stroke-opacity:1"
         d="m 703.26568,119.94377 q 2.50628,0 2.50628,-3.15916 0,-3.13811 -2.50628,-3.13811 -2.50627,0 -2.50627,3.13811 0,3.15916 2.50627,3.15916 z m 0,2.29566 q -1.26366,0 -2.25353,-0.40016 -0.98987,-0.40016 -1.68489,-1.11624 -0.67396,-0.71608 -1.03199,-1.72701 -0.35804,-1.01093 -0.35804,-2.21141 0,-1.22155 0.35804,-2.23248 0.37909,-1.01093 1.07411,-1.72701 0.69502,-0.71608 1.66383,-1.09518 0.98987,-0.40016 2.23247,-0.40016 1.22155,0 2.19036,0.40016 0.96881,0.3791 1.64276,1.09518 0.69502,0.69502 1.05306,1.70595 0.3791,1.01093 0.3791,2.25354 0,1.2426 -0.3791,2.25353 -0.35804,0.98988 -1.05306,1.70595 -0.67395,0.71608 -1.66382,1.11624 -0.96881,0.3791 -2.1693,0.3791 z" />
      <path
         id="path907"
         style="font-style:normal;font-variant:normal;font-weight:normal;font-stretch:normal;font-size:21.0611px;line-height:1.25;font-family:Coolvetica;-inkscape-font-specification:'Coolvetica, Normal';font-variant-ligatures:normal;font-variant-caps:normal;font-variant-numeric:normal;font-variant-east-asian:normal;letter-spacing:0px;word-spacing:0px;fill:#eae2b7;fill-opacity:1;stroke:none;stroke-width:0.527;stroke-miterlimit:4;stroke-dasharray:none;stroke-opacity:1"
         d="m 722.20357,121.96564 v -6.27621 q 0,-0.94775 -0.44228,-1.53746 -0.44228,-0.58971 -1.17942,-0.58971 -0.7582,0 -1.26367,0.63183 -0.4844,0.63183 -0.4844,1.57958 v 6.19197 h -2.73795 v -6.23409 q 0,-0.63183 -0.0842,-1.03199 -0.0842,-0.40016 -0.29486,-0.63184 -0.18955,-0.23167 -0.50546,-0.31591 -0.31592,-0.10531 -0.7582,-0.10531 -1.66383,0 -1.66383,2.02187 v 6.29727 h -2.73794 v -10.36206 h 2.56945 v 1.5164 q 0.52653,-1.032 1.26367,-1.4111 0.73714,-0.3791 1.76913,-0.3791 0.52653,0 0.92669,0.0842 0.42122,0.0842 0.73714,0.29485 0.33697,0.18955 0.63183,0.50547 0.29486,0.31591 0.58971,0.7582 0.42122,-0.86351 1.11624,-1.24261 0.69502,-0.40016 1.68489,-0.40016 0.77926,0 1.43215,0.2738 0.6529,0.25273 1.11624,0.73713 0.46334,0.46335 0.71608,1.09518 0.27379,0.63183 0.27379,1.34791 v 7.18184 z" />
    </g>
  </g>
</svg>
